<?xml version="1.0" encoding="utf-8"?>
<!-- Generator: Adobe Illustrator 16.0.0, SVG Export Plug-In . SVG Version: 6.00 Build 0)  -->
<!DOCTYPE svg PUBLIC "-//W3C//DTD SVG 1.1//EN" "http://www.w3.org/Graphics/SVG/1.1/DTD/svg11.dtd">
<svg version="1.1" id="Layer_1" xmlns="http://www.w3.org/2000/svg" xmlns:xlink="http://www.w3.org/1999/xlink" x="0px" y="0px"
	 width="790px" height="308.5px" viewBox="0 0 790 308.5" enable-background="new 0 0 790 308.5" xml:space="preserve">
<g>
	<g>
		<g>
			<path fill="#323544" d="M281,26c1.103,0,2,0.897,2,2v27c0,1.103-0.897,2-2,2h-15c-1.103,0-2-0.897-2-2V28c0-1.103,0.897-2,2-2
				H281 M281,23h-15c-2.761,0-5,2.238-5,5v27c0,2.762,2.239,5,5,5h15c2.761,0,5-2.238,5-5V28C286,25.238,283.761,23,281,23L281,23z"
				/>
		</g>
		<g>
			<path fill="#323544" d="M280,29v20h-13V29H280 M280,28h-13c-0.552,0-1,0.447-1,1v20c0,0.553,0.448,1,1,1h13c0.552,0,1-0.447,1-1
				V29C281,28.447,280.552,28,280,28L280,28z"/>
		</g>
		<g>
			<path fill="#323544" d="M275,53v1h-3v-1H275 M275,52h-3c-0.552,0-1,0.448-1,1v1c0,0.552,0.448,1,1,1h3c0.552,0,1-0.448,1-1v-1
				C276,52.448,275.552,52,275,52L275,52z"/>
		</g>
	</g>
	<g>
		<rect x="143" y="48" fill="#323544" width="14" height="3"/>
		<g>
			<path fill="#323544" d="M156.5,32c-5.247,0-9.5,4.254-9.5,9.5c0,1.629,0.411,3.16,1.133,4.5h3.684
				c-1.123-1.168-1.816-2.752-1.816-4.5c0-3.59,2.91-6.5,6.5-6.5s6.5,2.91,6.5,6.5s-2.91,6.5-6.5,6.5
				c-0.169,0-0.334-0.013-0.5-0.025V48h-6.415c1.733,1.843,4.186,3,6.915,3c5.247,0,9.5-4.254,9.5-9.5S161.747,32,156.5,32z"/>
		</g>
		<g>
			<path fill="#323544" d="M174,48.5c0,0.276-0.224,0.5-0.5,0.5h-6c-0.276,0-0.5-0.224-0.5-0.5l0,0c0-0.276,0.224-0.5,0.5-0.5h6
				C173.776,48,174,48.224,174,48.5L174,48.5z"/>
			<path fill="#323544" d="M173.853,48.146c0.196,0.196,0.196,0.512,0,0.707l0,0c-0.195,0.196-0.511,0.196-0.707,0l-2.999-2.999
				c-0.196-0.196-0.196-0.512,0-0.707l0,0c0.195-0.196,0.511-0.196,0.707,0L173.853,48.146z"/>
			<path fill="#323544" d="M173.853,48.854c0.196-0.196,0.196-0.512,0-0.707l0,0c-0.195-0.196-0.511-0.196-0.707,0l-2.999,2.999
				c-0.196,0.196-0.196,0.512,0,0.707l0,0c0.195,0.196,0.511,0.196,0.707,0L173.853,48.854z"/>
		</g>
		<path fill="#323544" d="M148,49.5c0,0.829-0.671,1.5-1.5,1.5h-7c-0.829,0-1.5-0.671-1.5-1.5l0,0c0-0.829,0.671-1.5,1.5-1.5h7
			C147.329,48,148,48.671,148,49.5L148,49.5z"/>
	</g>
	<path fill="#323544" d="M380,44"/>
	<g>
		<path fill="#323544" d="M504.051,42H491v-1h13.051c0.051-0.354,0.15-0.688,0.299-1H491.5c-0.828,0-1.5,0.672-1.5,1.5
			s0.672,1.5,1.5,1.5h12.85C504.201,42.688,504.102,42.354,504.051,42z"/>
		<path fill="#323544" d="M507.5,37c-2.314,0-4.198,1.753-4.449,4h1c0.244-1.694,1.688-3,3.449-3c1.933,0,3.5,1.566,3.5,3.5
			s-1.567,3.5-3.5,3.5c-1.762,0-3.205-1.306-3.449-3h-1c0.251,2.247,2.135,4,4.449,4c2.485,0,4.5-2.015,4.5-4.5S509.985,37,507.5,37
			z"/>
		<path fill="#323544" d="M507.5,32c-0.169,0-0.333,0.017-0.5,0.025v3c0.166-0.013,0.331-0.025,0.5-0.025c3.59,0,6.5,2.91,6.5,6.5
			s-2.91,6.5-6.5,6.5c-0.169,0-0.334-0.013-0.5-0.025v3c0.167,0.009,0.331,0.025,0.5,0.025c5.247,0,9.5-4.254,9.5-9.5
			S512.747,32,507.5,32z"/>
		<path fill="#323544" d="M526,41.5c0,0.828-0.672,1.5-1.5,1.5h-8c-0.828,0-1.5-0.672-1.5-1.5l0,0c0-0.828,0.672-1.5,1.5-1.5h8
			C525.328,40,526,40.672,526,41.5L526,41.5z"/>
	</g>
	<g>
		<path fill="#323544" d="M27.5,34c-4.142,0-7.5,3.357-7.5,7.5s3.358,7.5,7.5,7.5s7.5-3.357,7.5-7.5S31.642,34,27.5,34z M27.5,46
			c-2.485,0-4.5-2.015-4.5-4.5s2.015-4.5,4.5-4.5s4.5,2.015,4.5,4.5S29.985,46,27.5,46z"/>
		<path fill="#323544" d="M51.5,34c-4.142,0-7.5,3.357-7.5,7.5s3.358,7.5,7.5,7.5s7.5-3.357,7.5-7.5S55.642,34,51.5,34z M51.5,46
			c-2.485,0-4.5-2.015-4.5-4.5s2.015-4.5,4.5-4.5s4.5,2.015,4.5,4.5S53.985,46,51.5,46z"/>
		<g>
			<path fill="#323544" d="M20,41.5c0,0.276-0.224,0.5-0.5,0.5h-6c-0.276,0-0.5-0.224-0.5-0.5l0,0c0-0.276,0.224-0.5,0.5-0.5h6
				C19.776,41,20,41.224,20,41.5L20,41.5z"/>
			<path fill="#323544" d="M19.853,41.146c0.196,0.196,0.196,0.512,0,0.707l0,0c-0.195,0.196-0.511,0.196-0.707,0l-2.999-2.999
				c-0.196-0.196-0.196-0.512,0-0.707l0,0c0.195-0.196,0.511-0.196,0.707,0L19.853,41.146z"/>
			<path fill="#323544" d="M19.853,41.854c0.196-0.196,0.196-0.512,0-0.707l0,0c-0.195-0.196-0.511-0.196-0.707,0l-2.999,2.999
				c-0.196,0.196-0.196,0.512,0,0.707l0,0c0.195,0.196,0.511,0.196,0.707,0L19.853,41.854z"/>
		</g>
		<g>
			<path fill="#323544" d="M44,41.5c0,0.276-0.224,0.5-0.5,0.5h-6c-0.276,0-0.5-0.224-0.5-0.5l0,0c0-0.276,0.224-0.5,0.5-0.5h6
				C43.776,41,44,41.224,44,41.5L44,41.5z"/>
			<path fill="#323544" d="M43.853,41.146c0.196,0.196,0.196,0.512,0,0.707l0,0c-0.195,0.196-0.511,0.196-0.707,0l-2.999-2.999
				c-0.196-0.196-0.196-0.512,0-0.707l0,0c0.195-0.196,0.511-0.196,0.707,0L43.853,41.146z"/>
			<path fill="#323544" d="M43.853,41.854c0.196-0.196,0.196-0.512,0-0.707l0,0c-0.195-0.196-0.511-0.196-0.707,0l-2.999,2.999
				c-0.196,0.196-0.196,0.512,0,0.707l0,0c0.195,0.196,0.511,0.196,0.707,0L43.853,41.854z"/>
		</g>
	</g>
	<g>
		<path fill="#323544" d="M625,25h-1c-6,0-12,11-12,20s7,13,12,13h1c5,0,12-4,12-13S631,25,625,25z M624.88,55h-0.76
			c-3.8,0-9.12-3.282-9.12-10.668s4.56-16.412,9.12-16.412h0.76c4.561,0,9.12,9.026,9.12,16.412S628.68,55,624.88,55z"/>
		<polygon fill="#323544" points="614,42 619,37 624,42 628,37 631,40 634,37 634,36 631,39 628,36 624,41 619,36 614,41 		"/>
		<polygon fill="#323544" points="614,47 619,42 624,47 628,42 631,45 634,42 634,41 631,44 628,41 624,46 619,41 614,46 		"/>
	</g>
	<polygon fill="#FFFFFF" points="729,41 740,48 759,30 759,31 740,55 729,42 	"/>
	<g>
		<path fill="#323544" d="M381,42c0,2-3,2-3-0.5c0-6.903,5.597-12.5,12.5-12.5c4.407,0,8.274,2.287,10.5,5.733V37h-2.133
			c-1.604-2.977-4.749-5-8.367-5c-5.246,0-9.5,3.754-9.5,9"/>
		<path fill="#323544" d="M401,36.5c0,0.276-0.224,0.5-0.5,0.5h-6c-0.276,0-0.5-0.224-0.5-0.5l0,0c0-0.276,0.224-0.5,0.5-0.5h6
			C400.776,36,401,36.224,401,36.5L401,36.5z"/>
		<path fill="#323544" d="M400.5,37c-0.276,0-0.5-0.224-0.5-0.5V29c0-0.276,0.224-0.5,0.5-0.5l0,0c0.276,0,0.5,0.224,0.5,0.5v7.5
			C401,36.776,400.776,37,400.5,37L400.5,37z"/>
	</g>
	<g>
		<path fill="#323544" d="M400,41c0-2,3-2,3,0.5c0,6.903-5.597,12.5-12.5,12.5c-4.407,0-8.274-2.287-10.5-5.733V46h2.133
			c1.604,2.977,4.749,5,8.367,5c5.246,0,9.5-3.754,9.5-9"/>
		<path fill="#323544" d="M380,45.5c0-0.276,0.224-0.5,0.5-0.5h6c0.276,0,0.5,0.224,0.5,0.5l0,0c0,0.276-0.224,0.5-0.5,0.5h-6
			C380.224,46,380,45.776,380,45.5L380,45.5z"/>
		<path fill="#323544" d="M380.5,45.5c0.276,0,0.5,0.224,0.5,0.5v7.5c0,0.276-0.224,0.5-0.5,0.5l0,0c-0.276,0-0.5-0.224-0.5-0.5V46
			C380,45.724,380.224,45.5,380.5,45.5L380.5,45.5z"/>
	</g>
</g>
<g>
	<g>
		<g>
			<path fill="#323544" d="M280,82c1.103,0,2,0.897,2,2v21c0,1.103-0.897,2-2,2h-12c-1.103,0-2-0.897-2-2V84c0-1.103,0.897-2,2-2
				H280 M280,80h-12c-2.209,0-4,1.79-4,4v21c0,2.21,1.791,4,4,4h12c2.209,0,4-1.79,4-4V84C284,81.79,282.209,80,280,80L280,80z"/>
		</g>
		<g>
			<path fill="#323544" d="M279,85v15h-10V85H279 M279.2,84h-10.4c-0.441,0-0.8,0.357-0.8,0.8v15.4c0,0.442,0.358,0.8,0.8,0.8h10.4
				c0.441,0,0.8-0.357,0.8-0.8V84.8C280,84.357,279.642,84,279.2,84L279.2,84z"/>
		</g>
		<g>
			<path fill="#323544" d="M275,103v1h-2v-1H275 M275,102h-2c-0.552,0-1,0.448-1,1v1c0,0.552,0.448,1,1,1h2c0.552,0,1-0.448,1-1v-1
				C276,102.448,275.552,102,275,102L275,102z"/>
		</g>
	</g>
	<g>
		<rect x="140" y="99" fill="#323544" width="15" height="2"/>
		<path fill="#323544" d="M154.5,86c-4.142,0-7.5,3.357-7.5,7.5c0,1.265,0.316,2.455,0.869,3.5h2.388
			c-0.785-0.951-1.257-2.17-1.257-3.5c0-3.038,2.462-5.5,5.5-5.5s5.5,2.462,5.5,5.5c0,2.869-2.197,5.222-5,5.475V99h-5.587
			c1.337,1.237,3.121,2,5.087,2c4.142,0,7.5-3.357,7.5-7.5S158.642,86,154.5,86z"/>
		<g>
			<path fill="#323544" d="M168,100.5c0,0.276-0.224,0.5-0.5,0.5h-6c-0.276,0-0.5-0.224-0.5-0.5l0,0c0-0.276,0.224-0.5,0.5-0.5h6
				C167.776,100,168,100.224,168,100.5L168,100.5z"/>
			<path fill="#323544" d="M167.853,100.146c0.196,0.196,0.196,0.512,0,0.707l0,0c-0.195,0.196-0.511,0.196-0.707,0l-2.999-2.999
				c-0.196-0.196-0.196-0.512,0-0.707l0,0c0.195-0.196,0.511-0.196,0.707,0L167.853,100.146z"/>
			<path fill="#323544" d="M167.853,100.854c0.196-0.196,0.196-0.512,0-0.707l0,0c-0.195-0.196-0.511-0.196-0.707,0l-2.999,2.999
				c-0.196,0.196-0.196,0.512,0,0.707l0,0c0.195,0.196,0.511,0.196,0.707,0L167.853,100.854z"/>
		</g>
	</g>
	<g>
		<g>
			<path fill="#323544" d="M391,84c-5.522,0-10,4.478-10,10c0,0.338,1.967,0.671,2,1h0.471c-0.045-0.327-0.071-0.66-0.071-1
				c0-4.197,3.403-7.6,7.6-7.6c2.726,0,5.101,1.444,6.442,3.6H399v-1.957C397.177,85.599,394.283,84,391,84z"/>
			<path fill="#323544" d="M398.529,93c0.045,0.327,0.07,0.66,0.07,1c0,4.197-3.402,7.6-7.6,7.6c-2.726,0-5.101-1.444-6.442-3.6H383
				v1.957c1.822,2.444,4.716,4.043,8,4.043c5.522,0,10-4.478,10-10c0-1.066-1.904-0.055-2-1H398.529z"/>
		</g>
		<path fill="#323544" d="M400,90.5c0,0.276-0.224,0.5-0.5,0.5l0,0c-0.276,0-0.5-0.224-0.5-0.5v-6c0-0.276,0.224-0.5,0.5-0.5l0,0
			c0.276,0,0.5,0.224,0.5,0.5V90.5z"/>
		<path fill="#323544" d="M399.5,90c0.276,0,0.5,0.224,0.5,0.5l0,0c0,0.276-0.224,0.5-0.5,0.5h-6c-0.276,0-0.5-0.224-0.5-0.5l0,0
			c0-0.276,0.224-0.5,0.5-0.5H399.5z"/>
		<path fill="#323544" d="M382.5,97c-0.276,0-0.5,0.224-0.5,0.5l0,0c0,0.276,0.224,0.5,0.5,0.5h6c0.276,0,0.5-0.224,0.5-0.5l0,0
			c0-0.276-0.224-0.5-0.5-0.5H382.5z"/>
		<path fill="#323544" d="M383,97.5c0-0.276-0.224-0.5-0.5-0.5l0,0c-0.276,0-0.5,0.224-0.5,0.5v6c0,0.276,0.224,0.5,0.5,0.5l0,0
			c0.276,0,0.5-0.224,0.5-0.5V97.5z"/>
	</g>
	<g>
		<g>
			<path fill="#323544" d="M521,94c0,0.553-0.447,1-1,1h-5c-0.553,0-1-0.447-1-1l0,0c0-0.553,0.447-1,1-1h5
				C520.553,93,521,93.447,521,94L521,94z"/>
			<path fill="#323544" d="M507,86v2c3.313,0,6,2.687,6,6s-2.687,6-6,6v2c4.418,0,8-3.582,8-8S511.418,86,507,86z"/>
		</g>
		<path fill="#323544" d="M501.568,94.5h-7.772v-1h7.772h1.737c0.105-0.188,0.267-0.355,0.474-0.5h-9.188
			c-0.878,0-1.591,0.447-1.591,1s0.713,1,1.591,1h9.188c-0.207-0.145-0.368-0.312-0.474-0.5H501.568z"/>
		<path fill="#323544" d="M507,90c-1.861,0-3.412,1.278-3.858,3h1.042c0.414-1.162,1.513-2,2.816-2c1.656,0,3,1.344,3,3
			s-1.344,3-3,3c-1.304,0-2.402-0.838-2.816-2h-1.042c0.446,1.722,1.997,3,3.858,3c2.209,0,4-1.791,4-4S509.209,90,507,90z"/>
	</g>
	<g>
		<path fill="#323544" d="M624.4,80H623.6c-4.8,0-9.6,9-9.6,16.363c0,7.364,5.6,10.637,9.6,10.637h0.801c4,0,9.6-3.272,9.6-10.637
			C634,89,629.2,80,624.4,80z M624.225,105h-0.647c-3.24,0-7.776-2.807-7.776-9.121c0-6.316,3.888-14.035,7.776-14.035h0.647
			c3.888,0,7.775,7.719,7.775,14.035C632,102.193,627.464,105,624.225,105z"/>
		<polygon fill="#323544" points="615.6,93.909 619.6,89.818 623.6,93.909 626.8,89.818 629.2,92.272 631.6,89.818 631.6,89 
			629.2,91.455 626.8,89 623.6,93.091 619.6,89 615.6,93.091 		"/>
		<polygon fill="#323544" points="615.6,98 619.6,93.909 623.6,98 626.8,93.909 629.2,96.363 631.6,93.909 631.6,93.091 
			629.2,95.546 626.8,93.091 623.6,97.182 619.6,93.091 615.6,97.182 		"/>
	</g>
	<path fill="#323544" d="M47.5,89c-3.038,0-5.5,2.463-5.5,5.5s2.462,5.5,5.5,5.5s5.5-2.463,5.5-5.5S50.538,89,47.5,89z M47.5,98
		c-1.933,0-3.5-1.567-3.5-3.5s1.567-3.5,3.5-3.5s3.5,1.567,3.5,3.5S49.433,98,47.5,98z"/>
	<path fill="#323544" d="M29.5,89c-3.038,0-5.5,2.463-5.5,5.5s2.462,5.5,5.5,5.5s5.5-2.463,5.5-5.5S32.538,89,29.5,89z M29.5,98
		c-1.933,0-3.5-1.567-3.5-3.5s1.567-3.5,3.5-3.5s3.5,1.567,3.5,3.5S31.433,98,29.5,98z"/>
	<polygon fill="#A7D966" points="729,91 740,98 759,80 759,81 740,105 729,92 	"/>
	<g>
		<path fill="#323544" d="M42,94.5c0,0.276-0.224,0.5-0.5,0.5H37c-0.276,0-0.5-0.224-0.5-0.5l0,0c0-0.276,0.224-0.5,0.5-0.5h4.5
			C41.776,94,42,94.224,42,94.5L42,94.5z"/>
		<path fill="#323544" d="M41.853,94.146c0.196,0.196,0.196,0.512,0,0.707l0,0c-0.195,0.196-0.511,0.196-0.707,0l-2.999-2.999
			c-0.196-0.196-0.196-0.512,0-0.707l0,0c0.195-0.196,0.511-0.196,0.707,0L41.853,94.146z"/>
		<path fill="#323544" d="M41.853,94.854c0.196-0.196,0.196-0.512,0-0.707l0,0c-0.195-0.196-0.511-0.196-0.707,0l-2.999,2.999
			c-0.196,0.196-0.196,0.512,0,0.707l0,0c0.195,0.196,0.511,0.196,0.707,0L41.853,94.854z"/>
	</g>
	<g>
		<path fill="#323544" d="M24,94.5c0,0.276-0.224,0.5-0.5,0.5H19c-0.276,0-0.5-0.224-0.5-0.5l0,0c0-0.276,0.224-0.5,0.5-0.5h4.5
			C23.776,94,24,94.224,24,94.5L24,94.5z"/>
		<path fill="#323544" d="M23.853,94.146c0.196,0.196,0.196,0.512,0,0.707l0,0c-0.195,0.196-0.511,0.196-0.707,0l-2.999-2.999
			c-0.196-0.196-0.196-0.512,0-0.707l0,0c0.195-0.196,0.511-0.196,0.707,0L23.853,94.146z"/>
		<path fill="#323544" d="M23.853,94.854c0.196-0.196,0.196-0.512,0-0.707l0,0c-0.195-0.196-0.511-0.196-0.707,0l-2.999,2.999
			c-0.196,0.196-0.196,0.512,0,0.707l0,0c0.195,0.196,0.511,0.196,0.707,0L23.853,94.854z"/>
	</g>
</g>
<g>
	<g>
		<g>
			<path fill-rule="evenodd" clip-rule="evenodd" fill="#45454C" d="M160.451,148.145c-1.007,2.236-1.492,3.234-2.79,5.211
				c-1.812,2.758-4.364,6.193-7.529,6.223c-2.812,0.025-3.536-1.832-7.353-1.811c-3.816,0.021-4.613,1.843-7.425,1.816
				c-3.163-0.027-5.583-3.129-7.396-5.889c-5.066-7.713-5.595-16.766-2.474-21.578c2.222-3.42,5.725-5.42,9.021-5.42
				c3.352,0,5.461,1.837,8.234,1.837c2.691,0,4.33-1.843,8.208-1.843c2.93,0,6.037,1.598,8.25,4.355
				C151.947,135.021,153.124,145.377,160.451,148.145L160.451,148.145z"/>
			<path fill-rule="evenodd" clip-rule="evenodd" fill="#45454C" d="M148.006,123.61c1.411-1.808,2.48-4.362,2.091-6.972
				c-2.301,0.158-4.994,1.623-6.565,3.531c-1.427,1.732-2.604,4.305-2.146,6.802C143.898,127.049,146.497,125.549,148.006,123.61
				L148.006,123.61z"/>
		</g>
	</g>
	<g>
		<g>
			<g>
				<linearGradient id="SVGID_1_" gradientUnits="userSpaceOnUse" x1="141.9624" y1="160.335" x2="141.9624" y2="127.9414">
					<stop  offset="0" style="stop-color:#6F6F6F"/>
					<stop  offset="1" style="stop-color:#D8D8D8"/>
				</linearGradient>
				<path fill-rule="evenodd" clip-rule="evenodd" fill="url(#SVGID_1_)" d="M135.358,160.334c-3.009-0.026-5.323-2.936-7.189-5.776
					c-4.673-7.114-5.736-16.273-2.473-21.304c2.126-3.273,5.502-5.307,8.811-5.307c1.712,0,3.096,0.492,4.434,0.969
					c1.253,0.447,2.437,0.868,3.801,0.868c1.269,0,2.311-0.395,3.415-0.812c1.339-0.507,2.724-1.031,4.793-1.031
					c2.819,0,5.741,1.504,7.869,4.035c-3.223,1.886-4.984,5.195-4.723,8.914c0.266,3.788,2.564,6.979,6.021,8.391
					c-0.943,2.088-1.425,3.052-2.663,4.937c-1.975,3.006-4.39,6.083-7.322,6.11c0,0-0.001,0-0.001,0
					c-1.27,0-2.057-0.361-2.969-0.779c-1.055-0.483-2.251-1.031-4.315-1.031c-2.156,0.012-3.382,0.559-4.463,1.04
					c-0.935,0.417-1.742,0.776-2.966,0.777L135.358,160.334z"/>
				<path fill="#D4D4D4" d="M150.949,128.191c2.663,0,5.424,1.383,7.486,3.724c-3.144,1.958-4.851,5.276-4.59,8.992
					c0.267,3.798,2.524,7.01,5.937,8.505c-0.869,1.916-1.357,2.87-2.538,4.668c-1.939,2.951-4.301,5.972-7.116,5.998h-0.053
					c-1.16,0-1.925-0.35-2.811-0.756c-1.078-0.494-2.301-1.055-4.419-1.055h-0.067c-2.143,0.012-3.394,0.569-4.498,1.062
					c-0.909,0.404-1.694,0.755-2.865,0.755l-0.055-0.001c-2.891-0.025-5.152-2.877-6.982-5.664
					c-4.622-7.036-5.685-16.078-2.472-21.03c2.081-3.203,5.376-5.192,8.602-5.192c1.669,0,3.032,0.484,4.35,0.955
					c1.274,0.453,2.477,0.882,3.884,0.882c1.314,0,2.377-0.402,3.503-0.828C147.562,128.707,148.925,128.191,150.949,128.191
					 M150.949,127.691c-3.877,0-5.517,1.843-8.208,1.843c-2.773,0-4.882-1.837-8.234-1.837c-3.296,0-6.799,2-9.021,5.42
					c-3.122,4.812-2.592,13.865,2.474,21.578c1.813,2.76,4.233,5.861,7.396,5.889c0.02,0,0.04,0.001,0.059,0.001
					c2.764,0,3.576-1.797,7.366-1.817c0.021,0,0.042,0,0.064,0c3.734,0,4.481,1.811,7.23,1.811c0.019,0,0.039,0,0.058,0
					c3.165-0.029,5.716-3.465,7.529-6.223c1.298-1.977,1.782-2.975,2.79-5.211c-7.327-2.768-8.504-13.123-1.252-17.098
					C156.986,129.289,153.879,127.691,150.949,127.691L150.949,127.691z"/>
			</g>
			<g>
				<linearGradient id="SVGID_2_" gradientUnits="userSpaceOnUse" x1="145.7334" y1="127.7246" x2="145.7334" y2="117.9082">
					<stop  offset="0" style="stop-color:#6F6F6F"/>
					<stop  offset="1" style="stop-color:#D8D8D8"/>
				</linearGradient>
				<path fill-rule="evenodd" clip-rule="evenodd" fill="url(#SVGID_2_)" d="M141.599,127.725c-0.297-2.033,0.489-4.408,2.126-6.396
					c1.489-1.808,3.989-3.188,6.156-3.42c0.354,3.053-1.321,5.586-2.072,6.549C146.293,126.403,143.801,127.714,141.599,127.725z"/>
				<path fill="#D4D4D4" d="M149.657,118.189c0.227,2.848-1.334,5.201-2.045,6.113c-1.42,1.824-3.719,3.073-5.792,3.166
					c-0.202-1.914,0.564-4.118,2.099-5.981C145.312,119.795,147.611,118.488,149.657,118.189 M150.097,117.639
					c-2.301,0.158-4.994,1.623-6.565,3.531c-1.427,1.732-2.604,4.305-2.146,6.802c0.062,0.002,0.124,0.003,0.186,0.003
					c2.453,0,4.961-1.474,6.433-3.364C149.417,122.803,150.486,120.248,150.097,117.639L150.097,117.639z"/>
			</g>
		</g>
	</g>
	<g>
		<g>
			<path fill="#FFFFFF" d="M143.47,122.9c1.507-1.83,4.09-3.236,6.297-3.387c0.08,0.537,0.084,1.069,0.046,1.596
				c0.324-1.104,0.461-2.279,0.283-3.471c-2.301,0.158-4.994,1.623-6.565,3.531c-1.368,1.66-2.49,4.092-2.178,6.489
				C141.543,125.866,142.438,124.154,143.47,122.9z"/>
			<g>
				<path fill="#FFFFFF" d="M128.53,155.062c-4.86-7.399-5.368-16.083-2.373-20.7c2.131-3.281,5.492-5.201,8.654-5.201
					c3.216,0,5.239,1.764,7.899,1.764c2.582,0,4.154-1.768,7.874-1.768c2.613,0,5.363,1.337,7.444,3.648
					c0.364-0.271,0.75-0.527,1.17-0.758c-2.213-2.758-5.32-4.355-8.25-4.355c-3.877,0-5.517,1.843-8.208,1.843
					c-2.773,0-4.882-1.837-8.234-1.837c-3.296,0-6.799,2-9.021,5.42c-3.122,4.812-2.592,13.865,2.474,21.578
					c1.48,2.252,3.364,4.73,5.727,5.582C131.578,159.356,129.878,157.113,128.53,155.062z"/>
				<path fill="#FFFFFF" d="M154.995,136.75c-2.609,4.561-0.719,10.938,4.707,12.986c-0.966,2.146-1.431,3.104-2.676,4.999
					c-1.399,2.13-3.259,4.678-5.515,5.606c2.532-0.814,4.61-3.641,6.151-5.986c1.298-1.977,1.782-2.975,2.79-5.211
					C155.237,147.176,153.159,141.37,154.995,136.75z"/>
			</g>
		</g>
	</g>
</g>
<path fill="#FFFFFF" d="M41.68,145.224c-0.868,0.386-1.802,0.646-2.78,0.763c1-0.599,1.767-1.548,2.128-2.679
	c-0.935,0.555-1.971,0.958-3.074,1.175c-0.883-0.941-2.141-1.529-3.534-1.529c-2.674,0-4.842,2.168-4.842,4.842
	c0,0.379,0.043,0.749,0.125,1.103c-4.023-0.202-7.591-2.129-9.979-5.058c-0.417,0.715-0.656,1.546-0.656,2.434
	c0,1.68,0.855,3.161,2.154,4.03c-0.794-0.025-1.54-0.243-2.193-0.606c0,0.021,0,0.041,0,0.061c0,2.346,1.668,4.302,3.883,4.747
	c-0.406,0.111-0.834,0.17-1.275,0.17c-0.312,0-0.616-0.031-0.911-0.086c0.615,1.923,2.404,3.323,4.522,3.362
	c-1.657,1.299-3.745,2.073-6.013,2.073c-0.39,0-0.776-0.023-1.154-0.068c2.142,1.374,4.687,2.175,7.421,2.175
	c8.905,0,13.775-7.377,13.775-13.775c0-0.21-0.004-0.419-0.014-0.627C40.21,147.048,41.031,146.195,41.68,145.224z"/>
<g>
	<path fill="#FFFFFF" d="M83.692,144.985c0.345,0,2.415,0,2.415,0v-3.374c0,0-0.307,0-3.028,0s-4.025,2.492-4.025,3.335
		s0.077,2.722,0.077,2.722h-2.07v3.565h1.994v9.431h4.025c0,0-0.032-5.399-0.054-9.534c1.084-0.037,2.086-0.203,2.086-0.203
		s0.996-2.071,0.996-2.492s0-0.767,0-0.767h-3.101c-0.003-0.562-0.004-0.959-0.004-1.112
		C83.002,145.483,83.347,144.985,83.692,144.985z"/>
</g>
<g>
	<path fill="#323544" d="M30.52,259.938c1.337,0,2.937-0.33,4.799-0.99v7.236c-1.337,0.576-2.611,0.986-3.821,1.232
		c-1.21,0.244-2.628,0.367-4.253,0.367c-3.335,0-5.738-0.816-7.211-2.449c-1.473-1.634-2.209-4.143-2.209-7.529v-11.857h-3.479
		v-4.037l4.418-3.123l2.564-6.043h6.5v5.764h7.059v7.439h-7.059v11.197C27.828,259.007,28.725,259.938,30.52,259.938z"/>
	<path fill="#323544" d="M57.371,267.275l-1.904-3.809h-0.203c-1.336,1.66-2.699,2.793-4.088,3.402
		c-1.388,0.609-3.182,0.914-5.382,0.914c-2.708,0-4.841-0.812-6.398-2.438c-1.558-1.625-2.336-3.91-2.336-6.855
		c0-3.063,1.066-5.345,3.199-6.843s5.222-2.34,9.268-2.526l4.798-0.152v-0.406c0-2.37-1.168-3.555-3.504-3.555
		c-2.099,0-4.765,0.711-7.998,2.133l-2.869-6.551c3.352-1.727,7.583-2.59,12.695-2.59c3.691,0,6.547,0.914,8.57,2.742
		c2.021,1.828,3.033,4.384,3.033,7.668v18.865H57.371z M50.008,260.775c1.203,0,2.23-0.381,3.085-1.142
		c0.854-0.762,1.281-1.752,1.281-2.971v-2.234l-2.285,0.102c-3.267,0.119-4.9,1.32-4.9,3.605
		C47.19,259.896,48.129,260.775,50.008,260.775z"/>
	<path fill="#323544" d="M86.155,238c0.863,0,1.685,0.068,2.463,0.203l0.559,0.102l-0.889,9.369
		c-0.812-0.203-1.938-0.305-3.377-0.305c-2.167,0-3.741,0.495-4.723,1.485s-1.473,2.417-1.473,4.278v14.142h-9.928v-28.767h7.389
		l1.549,4.596h0.482c0.829-1.523,1.984-2.755,3.466-3.694S84.648,238,86.155,238z"/>
	<path fill="#323544" d="M118.11,238.508v4.799l-3.936,1.447c0.542,0.982,0.812,2.125,0.812,3.428c0,3.098-1.088,5.501-3.263,7.211
		c-2.175,1.71-5.421,2.564-9.737,2.564c-1.066,0-1.913-0.067-2.539-0.203c-0.237,0.44-0.355,0.855-0.355,1.244
		c0,0.491,0.397,0.868,1.193,1.13c0.796,0.262,1.837,0.393,3.123,0.393h4.773c6.449,0,9.674,2.717,9.674,8.15
		c0,3.504-1.494,6.229-4.481,8.176c-2.987,1.947-7.182,2.92-12.581,2.92c-4.079,0-7.224-0.682-9.433-2.043
		c-2.209-1.363-3.313-3.322-3.313-5.879c0-3.436,2.133-5.652,6.398-6.652c-0.88-0.371-1.646-0.973-2.298-1.803
		c-0.651-0.828-0.978-1.65-0.978-2.463c0-0.896,0.245-1.688,0.736-2.374s1.515-1.502,3.072-2.45
		c-1.489-0.66-2.662-1.692-3.517-3.098c-0.854-1.405-1.282-3.114-1.282-5.129c0-3.131,1.066-5.561,3.199-7.287s5.18-2.59,9.141-2.59
		c0.524,0,1.431,0.06,2.717,0.178c1.286,0.119,2.234,0.229,2.844,0.33H118.11z M96.427,270.855c0,0.812,0.44,1.469,1.32,1.969
		c0.88,0.498,2.057,0.748,3.529,0.748c2.403,0,4.329-0.301,5.776-0.9c1.447-0.602,2.171-1.376,2.171-2.324
		c0-0.762-0.44-1.299-1.32-1.611c-0.88-0.314-2.142-0.471-3.783-0.471h-3.885c-1.066,0-1.968,0.25-2.704,0.75
		C96.795,269.514,96.427,270.128,96.427,270.855z M99.55,247.928c0,2.945,1.024,4.418,3.072,4.418c0.948,0,1.68-0.364,2.196-1.092
		c0.517-0.728,0.774-1.819,0.774-3.275c0-2.979-0.99-4.469-2.971-4.469C100.574,243.51,99.55,244.983,99.55,247.928z"/>
	<path fill="#323544" d="M135.036,267.783c-4.79,0-8.51-1.273-11.159-3.82c-2.649-2.548-3.974-6.174-3.974-10.88
		c0-4.858,1.228-8.586,3.682-11.185c2.454-2.598,5.958-3.897,10.512-3.897c4.333,0,7.681,1.13,10.042,3.39s3.542,5.514,3.542,9.763
		v4.418h-17.748c0.067,1.608,0.656,2.869,1.765,3.783c1.108,0.914,2.619,1.371,4.532,1.371c1.743,0,3.348-0.164,4.812-0.494
		c1.464-0.331,3.051-0.893,4.761-1.689v7.134c-1.558,0.797-3.165,1.346-4.824,1.65S137.338,267.783,135.036,267.783z
		 M134.452,244.754c-1.168,0-2.146,0.368-2.933,1.104s-1.248,1.892-1.384,3.466h8.531c-0.034-1.388-0.428-2.497-1.181-3.326
		C136.733,245.169,135.722,244.754,134.452,244.754z"/>
	<path fill="#323544" d="M165.42,259.938c1.337,0,2.937-0.33,4.799-0.99v7.236c-1.337,0.576-2.611,0.986-3.821,1.232
		c-1.21,0.244-2.628,0.367-4.253,0.367c-3.335,0-5.738-0.816-7.211-2.449c-1.473-1.634-2.209-4.143-2.209-7.529v-11.857h-3.479
		v-4.037l4.418-3.123l2.564-6.043h6.5v5.764h7.059v7.439h-7.059v11.197C162.729,259.007,163.626,259.938,165.42,259.938z"/>
	<path fill="#323544" d="M190.773,267.783c-1.456,0-2.759-0.24-3.91-0.723s-2.294-1.35-3.428-2.604h-0.457
		c0.305,2.016,0.457,3.268,0.457,3.758v11.553h-9.928v-41.259h8.074l1.396,3.656h0.457c1.845-2.776,4.393-4.164,7.643-4.164
		c3.183,0,5.679,1.32,7.49,3.961s2.717,6.263,2.717,10.867c0,4.638-0.943,8.291-2.831,10.957S194.007,267.783,190.773,267.783z
		 M187.447,245.795c-1.456,0-2.476,0.521-3.06,1.562s-0.901,2.586-0.952,4.634v0.787c0,2.472,0.33,4.257,0.99,5.357
		c0.66,1.101,1.701,1.65,3.123,1.65c1.27,0,2.192-0.546,2.768-1.638s0.863-2.898,0.863-5.421c0-2.471-0.288-4.244-0.863-5.319
		C189.741,246.333,188.784,245.795,187.447,245.795z"/>
	<path fill="#323544" d="M222.055,238c0.863,0,1.685,0.068,2.463,0.203l0.559,0.102l-0.889,9.369
		c-0.812-0.203-1.938-0.305-3.377-0.305c-2.167,0-3.741,0.495-4.723,1.485s-1.473,2.417-1.473,4.278v14.142h-9.928v-28.767h7.389
		l1.549,4.596h0.482c0.829-1.523,1.984-2.755,3.466-3.694S220.548,238,222.055,238z"/>
	<path fill="#323544" d="M254.341,252.829c0,4.706-1.266,8.375-3.796,11.007c-2.53,2.632-6.072,3.947-10.626,3.947
		c-4.367,0-7.842-1.346-10.423-4.037s-3.872-6.33-3.872-10.917c0-4.688,1.266-8.332,3.796-10.931
		c2.53-2.598,6.081-3.897,10.651-3.897c2.827,0,5.323,0.601,7.49,1.803c2.167,1.202,3.838,2.924,5.015,5.167
		C253.753,247.213,254.341,249.833,254.341,252.829z M235.704,252.829c0,2.472,0.33,4.354,0.99,5.649s1.769,1.942,3.326,1.942
		c1.54,0,2.628-0.647,3.263-1.942s0.952-3.178,0.952-5.649c0-2.454-0.321-4.308-0.965-5.561c-0.644-1.252-1.743-1.879-3.301-1.879
		c-1.523,0-2.615,0.622-3.275,1.866S235.704,250.357,235.704,252.829z"/>
	<path fill="#323544" d="M271.149,267.783c-4.706,0-8.273-1.27-10.702-3.809s-3.644-6.186-3.644-10.943
		c0-4.773,1.312-8.472,3.936-11.096c2.624-2.624,6.356-3.936,11.197-3.936c3.335,0,6.475,0.728,9.42,2.184l-2.92,7.338
		c-1.202-0.524-2.311-0.943-3.326-1.257c-1.016-0.313-2.073-0.47-3.174-0.47c-1.608,0-2.853,0.626-3.732,1.879
		c-0.88,1.253-1.32,3.021-1.32,5.307c0,4.604,1.701,6.906,5.104,6.906c2.911,0,5.704-0.846,8.379-2.539v7.896
		C277.811,266.938,274.738,267.783,271.149,267.783z"/>
	<path fill="#323544" d="M298.116,267.783c-4.79,0-8.51-1.273-11.159-3.82c-2.649-2.548-3.974-6.174-3.974-10.88
		c0-4.858,1.228-8.586,3.682-11.185c2.454-2.598,5.958-3.897,10.512-3.897c4.333,0,7.681,1.13,10.042,3.39s3.542,5.514,3.542,9.763
		v4.418h-17.748c0.067,1.608,0.656,2.869,1.765,3.783c1.108,0.914,2.619,1.371,4.532,1.371c1.743,0,3.348-0.164,4.812-0.494
		c1.464-0.331,3.051-0.893,4.761-1.689v7.134c-1.558,0.797-3.165,1.346-4.824,1.65S300.418,267.783,298.116,267.783z
		 M297.532,244.754c-1.168,0-2.146,0.368-2.933,1.104s-1.248,1.892-1.384,3.466h8.531c-0.034-1.388-0.428-2.497-1.181-3.326
		C299.813,245.169,298.802,244.754,297.532,244.754z"/>
	<path fill="#323544" d="M336.625,258.44c0,3.082-1.05,5.408-3.148,6.982s-5.112,2.361-9.039,2.361
		c-2.133,0-3.986-0.113-5.561-0.342s-3.183-0.648-4.824-1.258v-7.947c1.54,0.677,3.229,1.236,5.065,1.676
		c1.837,0.441,3.475,0.66,4.913,0.66c2.149,0,3.225-0.49,3.225-1.472c0-0.508-0.301-0.96-0.901-1.358
		c-0.601-0.397-2.349-1.172-5.243-2.323c-2.641-1.083-4.485-2.314-5.535-3.694c-1.05-1.379-1.574-3.127-1.574-5.243
		c0-2.674,1.032-4.756,3.098-6.246c2.065-1.489,4.985-2.234,8.76-2.234c1.896,0,3.678,0.208,5.345,0.622
		c1.667,0.415,3.398,1.02,5.192,1.815l-2.691,6.398c-1.32-0.592-2.717-1.096-4.189-1.511c-1.473-0.415-2.675-0.622-3.605-0.622
		c-1.625,0-2.438,0.398-2.438,1.193c0,0.491,0.283,0.91,0.851,1.257c0.567,0.347,2.205,1.054,4.913,2.12
		c2.015,0.83,3.517,1.642,4.507,2.438c0.99,0.796,1.718,1.731,2.184,2.806C336.393,255.592,336.625,256.9,336.625,258.44z"/>
	<path fill="#323544" d="M362.805,258.44c0,3.082-1.05,5.408-3.148,6.982s-5.112,2.361-9.039,2.361
		c-2.133,0-3.986-0.113-5.561-0.342s-3.183-0.648-4.824-1.258v-7.947c1.54,0.677,3.229,1.236,5.065,1.676
		c1.837,0.441,3.475,0.66,4.913,0.66c2.149,0,3.225-0.49,3.225-1.472c0-0.508-0.301-0.96-0.901-1.358
		c-0.601-0.397-2.349-1.172-5.243-2.323c-2.641-1.083-4.485-2.314-5.535-3.694c-1.05-1.379-1.574-3.127-1.574-5.243
		c0-2.674,1.032-4.756,3.098-6.246c2.065-1.489,4.985-2.234,8.76-2.234c1.896,0,3.678,0.208,5.345,0.622
		c1.667,0.415,3.398,1.02,5.192,1.815l-2.691,6.398c-1.32-0.592-2.717-1.096-4.189-1.511c-1.473-0.415-2.675-0.622-3.605-0.622
		c-1.625,0-2.438,0.398-2.438,1.193c0,0.491,0.283,0.91,0.851,1.257c0.567,0.347,2.205,1.054,4.913,2.12
		c2.015,0.83,3.517,1.642,4.507,2.438c0.99,0.796,1.718,1.731,2.184,2.806C362.572,255.592,362.805,256.9,362.805,258.44z"/>
</g>
<g>
	<g>
		<path fill="#FFFFFF" d="M609.378,236.156l-1.773-0.001l-43.482,0.005l-1.774,0.001l-0.002-1.777
			c-0.003-7.286,3.967-14.061,10.468-18.064l-2.525-4.614c-0.311-0.542-0.39-1.226-0.207-1.853c0.181-0.625,0.613-1.163,1.192-1.471
			c0.333-0.191,0.741-0.297,1.156-0.294c0.896,0,1.717,0.485,2.147,1.271l2.646,4.818c2.737-1.004,5.628-1.516,8.612-1.516
			c3.029-0.002,5.936,0.512,8.685,1.519l2.642-4.827c0.425-0.783,1.25-1.271,2.144-1.271c0.401,0,0.805,0.098,1.16,0.29
			c0.594,0.325,1.009,0.845,1.19,1.477c0.182,0.625,0.109,1.288-0.209,1.863l-2.526,4.61c6.491,4.011,10.455,10.783,10.454,18.057
			L609.378,236.156z"/>
		<path fill="#FFFFFF" d="M596.524,217.004l3.369-6.154c0.18-0.321,0.062-0.734-0.265-0.913c-0.327-0.176-0.734-0.055-0.908,0.269
			l-3.406,6.214c-2.862-1.271-6.067-1.985-9.455-1.983c-3.383-0.002-6.582,0.708-9.437,1.977l-3.406-6.198
			c-0.173-0.329-0.586-0.448-0.906-0.27c-0.327,0.176-0.446,0.587-0.268,0.909l3.372,6.146c-6.623,3.416-11.096,9.921-11.094,17.386
			l43.483-0.003C607.604,226.917,603.136,220.428,596.524,217.004 M575.97,226.511c-1-0.002-1.817-0.815-1.817-1.823
			c0-1.002,0.817-1.824,1.821-1.824c1.005-0.001,1.823,0.822,1.823,1.824C577.797,225.694,576.979,226.508,575.97,226.511
			 M595.77,226.507c-1.008,0.001-1.828-0.812-1.823-1.825c0-0.998,0.814-1.821,1.825-1.826c0.997,0.004,1.816,0.828,1.816,1.827
			C597.588,225.693,596.772,226.507,595.77,226.507"/>
		<g>
			<polygon fill="#A4C439" points="607.455,236.058 564.302,236.067 564.303,243.425 607.456,243.425 			"/>
			<path fill="#A4C439" d="M562.43,243.425v-3.447c-0.002-2.662-2.165-4.825-4.829-4.824c-2.669-0.001-4.828,2.163-4.828,4.828
				v3.443H562.43z"/>
			<path fill="#A4C439" d="M618.969,243.425l-0.001-3.451c0-2.666-2.162-4.827-4.827-4.826c-2.664-0.002-4.825,2.162-4.825,4.827
				l0.001,3.45H618.969z"/>
			<path fill="#A4C439" d="M596.524,217.004l3.369-6.154c0.18-0.321,0.062-0.729-0.265-0.913c-0.33-0.173-0.733-0.055-0.908,0.269
				l-3.404,6.216c-2.864-1.273-6.065-1.988-9.457-1.986c-3.383-0.002-6.584,0.708-9.437,1.977l-3.406-6.198
				c-0.177-0.329-0.586-0.448-0.906-0.27c-0.327,0.177-0.446,0.587-0.268,0.909l3.372,6.146
				c-6.623,3.416-11.096,9.921-11.094,17.386l43.483-0.003C607.604,226.917,603.136,220.428,596.524,217.004z M575.97,226.511
				c-1-0.002-1.817-0.815-1.817-1.823c0-1.002,0.815-1.824,1.821-1.824c1.005-0.001,1.823,0.822,1.823,1.824
				C577.797,225.694,576.979,226.508,575.97,226.511z M595.77,226.507c-1.008,0.001-1.828-0.813-1.823-1.825
				c0.003-0.998,0.814-1.821,1.825-1.826c0.997,0.004,1.816,0.828,1.816,1.827C597.592,225.693,596.772,226.507,595.77,226.507z"/>
		</g>
		<g>
			<path fill="#FFFFFF" d="M552.772,239.982c0-2.665,2.159-4.829,4.828-4.828c2.664-0.001,4.827,2.162,4.829,4.824v3.447h0.095
				l-0.001-7.355v-0.446c-0.09-0.102-0.158-0.216-0.257-0.312c-1.248-1.247-2.9-1.933-4.671-1.931
				c-3.639,0.002-6.597,2.962-6.596,6.601v3.443h1.772V239.982z"/>
			<path fill="#FFFFFF" d="M562.43,243.425h1.873l-0.001-7.358l43.149-0.009l0.002,7.367h1.863l-0.001-3.45
				c0-1.681,0-2.93-0.088-4.365v-1.325l-1.774,0.001l-43.155,0.006h-1.775l0.001,1.331c0,0.767-0.094,2.73-0.094,4.354V243.425z"/>
			<path fill="#FFFFFF" d="M609.229,243.425h0.087v-3.45c0-2.665,2.161-4.829,4.825-4.827c2.665-0.001,4.825,2.16,4.825,4.826
				l0.002,3.451h1.776v-3.451c0.001-3.641-2.961-6.601-6.605-6.601c-1.96,0-3.701,0.875-4.911,2.237v0.448L609.229,243.425z"/>
		</g>
	</g>
	<path fill="#A9AFBB" d="M615.932,221.141c3.088-0.658,7.548-2.907,10.05-10.113c4.09-11.78,2.944-28.469,15.87-38.286
		c12.927-9.817,28.798-12.763,54.812-12.271c26.017,0.491,45.978,5.072,57.268,12.762c11.29,7.69,12.599,20.78,2.616,32.069
		c-9.98,11.29-37.14,14.726-59.884,14.234c-22.743-0.491-40.576-2.29-48.758-3.599c-8.181-1.309-13.581-3.109-16.361-2.291
		c-2.478,0.729-6.035,7.583-15.299,7.895"/>
</g>
<g id="Icon_x5F_mouse">
	<g>
		<path fill="#B2CBD6" d="M435.207,252.5l2.646-2.646c0.195-0.196,0.195-0.512,0-0.707c-0.195-0.196-0.512-0.196-0.707,0l-3,2.999
			c-0.098,0.098-0.146,0.226-0.146,0.354s0.049,0.256,0.146,0.354l3,2.999c0.195,0.196,0.512,0.196,0.707,0
			c0.195-0.195,0.195-0.511,0-0.707L435.207,252.5z M486.854,252.146l-3-2.999c-0.195-0.196-0.512-0.196-0.707,0
			c-0.195,0.195-0.195,0.511,0,0.707l2.646,2.646l-2.646,2.646c-0.195,0.196-0.195,0.512,0,0.707c0.195,0.196,0.512,0.196,0.707,0
			l3-2.999c0.098-0.098,0.146-0.226,0.146-0.354S486.951,252.244,486.854,252.146z M460.5,237.393c-5.246,0-9.499,4.198-9.499,9.378
			v12.242c0,5.181,4.253,9.379,9.499,9.379c5.247,0,9.5-4.198,9.5-9.379v-12.242C470,241.591,465.747,237.393,460.5,237.393z
			 M468.001,258.742c0,4.225-3.358,7.65-7.5,7.65c-4.143,0-7.501-3.426-7.501-7.65v-11.701c0-4.053,3.093-7.359,7.001-7.623v9.974
			h-7v1h15V258.742z M468.001,249.393h-7v-9.974c3.907,0.263,7,3.57,7,7.623V249.393z M482.854,252.146l-3-2.999
			c-0.195-0.196-0.512-0.196-0.707,0c-0.195,0.195-0.195,0.511,0,0.707l2.646,2.646l-2.646,2.646c-0.195,0.196-0.195,0.512,0,0.707
			c0.195,0.196,0.512,0.196,0.707,0l3-2.999c0.098-0.098,0.146-0.226,0.146-0.354S482.951,252.244,482.854,252.146z
			 M441.854,249.147c-0.195-0.196-0.512-0.196-0.707,0l-3,2.999c-0.098,0.098-0.146,0.226-0.146,0.354s0.049,0.256,0.146,0.354
			l3,2.999c0.195,0.196,0.512,0.196,0.707,0c0.195-0.195,0.195-0.511,0-0.707l-2.646-2.646l2.646-2.646
			C442.049,249.658,442.049,249.342,441.854,249.147z"/>
	</g>
</g>
<g>
	<path fill="#323544" d="M380.818,228.52c0,1.208-0.369,2.244-1.105,3.109c-0.737,0.866-1.802,1.494-3.196,1.885v0.08
		c3.25,0.408,4.875,1.944,4.875,4.608c0,1.811-0.717,3.236-2.15,4.275c-1.435,1.039-3.425,1.558-5.974,1.558
		c-1.048,0-2.017-0.076-2.91-0.227c-0.892-0.151-1.857-0.426-2.896-0.826v-4.368c0.853,0.435,1.72,0.757,2.604,0.966
		c0.883,0.208,1.698,0.312,2.444,0.312c1.154,0,1.995-0.162,2.524-0.486c0.527-0.324,0.792-0.833,0.792-1.525
		c0-0.533-0.138-0.943-0.413-1.232c-0.275-0.289-0.719-0.506-1.332-0.652s-1.412-0.22-2.397-0.22h-1.198v-3.956h1.225
		c2.672,0,4.009-0.684,4.009-2.051c0-0.515-0.198-0.897-0.593-1.146s-0.925-0.373-1.591-0.373c-1.243,0-2.531,0.417-3.862,1.252
		l-2.184-3.516c1.03-0.71,2.084-1.216,3.163-1.519c1.08-0.302,2.315-0.453,3.709-0.453c2.015,0,3.596,0.399,4.741,1.199
		C380.246,226.016,380.818,227.117,380.818,228.52z"/>
</g>
</svg>
